<?xml version="1.0" standalone="no"?>
<!DOCTYPE svg PUBLIC "-//W3C//DTD SVG 20010904//EN"
 "http://www.w3.org/TR/2001/REC-SVG-20010904/DTD/svg10.dtd">
<svg version="1.0" xmlns="http://www.w3.org/2000/svg"
 width="16.000000pt" height="16.000000pt" viewBox="0 0 16.000000 16.000000"
 preserveAspectRatio="xMidYMid meet">
<metadata>
Created by potrace 1.11, written by Peter Selinger 2001-2013
</metadata>
<g transform="translate(0.000000,16.000000) scale(0.002083,-0.002083)"
fill="#000000" stroke="none">
<path d="M3010 3974 l0 -586 193 4 c170 4 199 7 252 28 190 73 333 246 371
450 12 65 6 197 -11 255 -32 111 -65 167 -150 251 -141 141 -261 184 -512 184
l-143 0 0 -586z m335 341 c96 -27 195 -108 236 -191 43 -89 40 -225 -7 -321
-48 -98 -174 -184 -292 -199 -42 -5 -50 -3 -53 13 -3 15 -3 625 0 700 1 18 6
21 34 17 17 -3 55 -11 82 -19z"/>
<path d="M3956 4520 c-105 -93 9 -260 133 -195 44 22 68 93 49 148 -28 80
-117 104 -182 47z"/>
<path d="M1709 4306 c-139 -37 -259 -158 -289 -291 -9 -39 -18 -521 -11 -612
1 -10 30 -13 109 -13 l108 0 -1 267 c0 171 4 283 12 312 21 83 130 152 217
138 l33 -5 1 103 c0 98 -1 103 -21 109 -35 9 -108 6 -158 -8z"/>
<path d="M2311 4283 c-213 -54 -347 -255 -327 -490 11 -121 52 -208 135 -286
86 -80 192 -119 321 -116 286 6 467 198 456 483 -4 96 -18 147 -61 221 -31 52
-118 135 -167 158 -98 47 -245 59 -357 30z m233 -187 c170 -50 226 -277 102
-412 -56 -61 -119 -84 -217 -79 -146 6 -237 97 -240 240 -4 186 166 306 355
251z"/>
<path d="M4588 4285 c-137 -36 -242 -128 -292 -255 -27 -68 -29 -77 -32 -187
-5 -158 25 -235 126 -326 52 -47 149 -100 205 -112 75 -17 183 -17 245 -1 35
9 66 19 69 22 3 2 5 56 6 119 l1 113 -28 -19 c-46 -33 -103 -48 -175 -45 -103
3 -180 50 -228 138 -98 178 53 391 256 364 121 -16 217 -94 235 -193 12 -65 8
-509 -5 -540 -26 -64 -152 -109 -277 -99 -41 3 -82 10 -93 16 -11 5 -22 10
-25 10 -3 0 -6 -44 -6 -99 l0 -99 38 -9 c54 -14 187 -16 252 -3 103 19 202 80
263 161 54 72 58 99 58 409 0 255 -2 292 -19 347 -46 146 -191 267 -350 294
-73 12 -165 9 -224 -6z"/>
<path d="M5615 4285 c-154 -42 -290 -184 -326 -343 -24 -106 1 -250 58 -337
36 -56 113 -126 171 -158 157 -85 369 -72 507 32 l57 43 -67 68 -68 69 -33
-26 c-46 -35 -112 -52 -186 -49 -148 7 -253 118 -252 266 1 80 25 131 89 188
136 119 351 81 424 -74 12 -24 21 -46 21 -49 0 -3 -108 -5 -239 -5 -270 0
-252 6 -248 -82 2 -26 7 -52 13 -58 9 -9 315 -14 646 -10 l38 0 -4 83 c-2 52
-12 103 -26 139 -46 122 -165 242 -288 289 -70 27 -212 34 -287 14z"/>
<path d="M6664 4290 c-126 -27 -252 -131 -313 -259 -35 -73 -36 -80 -36 -186
1 -91 5 -119 24 -165 32 -77 83 -142 152 -194 90 -68 154 -89 278 -92 132 -3
204 20 299 95 l43 34 -67 68 -67 68 -31 -24 c-75 -56 -210 -69 -294 -26 -123
63 -178 204 -129 333 25 65 102 133 175 154 91 27 199 5 266 -54 23 -21 61
-79 70 -109 l7 -23 -240 0 c-186 0 -241 -3 -242 -12 -7 -79 -6 -108 4 -121 13
-17 48 -19 500 -17 l187 0 0 58 c0 127 -49 241 -146 338 -58 58 -154 117 -214
130 -48 10 -185 13 -226 4z"/>
<path d="M741 4264 c-168 -45 -299 -185 -319 -341 -4 -32 -7 -220 -6 -418 l0
-360 95 -3 95 -3 0 373 c1 420 1 425 71 499 152 163 438 49 428 -171 -4 -90
-36 -153 -97 -194 -51 -35 -92 -45 -161 -41 -67 3 -116 20 -160 55 l-28 22 3
-113 3 -113 65 -23 c238 -82 520 84 560 329 31 192 -49 367 -210 461 -93 54
-229 71 -339 41z"/>
<path d="M3931 3820 l0 -430 99 0 100 0 0 430 0 430 -100 0 -99 0 0 -430z"/>
</g>
</svg>
